<svg width="32" height="32" viewBox="0 0 32 32" fill="none" xmlns="http://www.w3.org/2000/svg">
<rect width="32" height="32" rx="4.8" fill="#F8AD3B"/>
<path d="M22.4561 23.8708C24.0381 22.2288 25.204 20.182 25.7794 17.9008C26.1993 16.2401 24.9115 14.6318 23.1983 14.6318H14.7129C13.9069 14.6318 13.4158 15.5184 13.8413 16.2026L18.3361 23.3966C19.2377 24.8399 21.2733 25.0986 22.4542 23.8727L22.4561 23.8708Z" fill="white"/>
<path d="M6.61711 23.642C5.70052 25.1097 6.41092 27.0516 8.06041 27.5764C9.33314 27.9813 10.6865 28.1987 12.0941 28.1987C13.5018 28.1987 14.8552 27.9794 16.1279 27.5764C17.7774 27.0516 18.4896 25.1097 17.5712 23.642L13.1757 16.6074C12.6752 15.807 11.5112 15.807 11.0126 16.6074L6.61711 23.642Z" fill="white"/>
<path d="M25.7815 10.5306C25.2061 8.24941 24.0402 6.20255 22.4582 4.56056C21.2773 3.33469 19.2417 3.59336 18.3401 5.03666L13.8452 12.2307C13.4179 12.9148 13.909 13.8014 14.7168 13.8014H23.2023C24.9155 13.8014 26.2033 12.1932 25.7834 10.5324L25.7815 10.5306Z" fill="white"/>
</svg>
